<svg id="Group_7319" data-name="Group 7319" xmlns="http://www.w3.org/2000/svg" width="553.527" height="466.541" viewBox="0 0 553.527 466.541">
  <g id="Group_7311" data-name="Group 7311" transform="translate(121.006)">
    <path id="Path_10764" data-name="Path 10764" d="M491.105,324.282H147.542a6.327,6.327,0,0,1-6.342-6.342V6.342A6.327,6.327,0,0,1,147.542,0H491.105a6.327,6.327,0,0,1,6.342,6.342v311.6A6.327,6.327,0,0,1,491.105,324.282Z" transform="translate(-141.2)" fill="#e1f3ff"/>
    <path id="Path_10765" data-name="Path 10765" d="M497.461,39.593V11.141A11.119,11.119,0,0,0,486.321,0H152.441A11.119,11.119,0,0,0,141.3,11.141V39.593Z" transform="translate(-141.214)" fill="#afe6ff"/>
    <path id="Path_10766" data-name="Path 10766" d="M497.461,33.594V11.141A11.119,11.119,0,0,0,486.321,0H152.441A11.119,11.119,0,0,0,141.3,11.141V33.508H497.461Z" transform="translate(-141.214)" fill="#5968f6"/>
    <circle id="Ellipse_667" data-name="Ellipse 667" cx="5.228" cy="5.228" r="5.228" transform="translate(21.082 11.569)" fill="#44c8f5"/>
    <circle id="Ellipse_668" data-name="Ellipse 668" cx="5.228" cy="5.228" r="5.228" transform="translate(39.25 11.569)" fill="#44c8f5"/>
    <circle id="Ellipse_669" data-name="Ellipse 669" cx="5.228" cy="5.228" r="5.228" transform="translate(57.503 11.569)" fill="#44c8f5"/>
    <g id="Group_7322" data-name="Group 7322" transform="translate(-264.357 -88.203)">
      <rect id="Rectangle_4057" data-name="Rectangle 4057" width="243.25" height="179.415" rx="3.83" transform="translate(313.896 174.914)" fill="#fff"/>
      <path id="Path_5182" data-name="Path 5182" d="M450.27,366.621a1.3,1.3,0,0,1-1.291-1.3V305.9a1.3,1.3,0,1,1,2.59,0v59.418a1.3,1.3,0,0,1-1.3,1.307Z" transform="translate(-65.175 -38.139)" fill="#e1f3ff" stroke="#e1f3ff" stroke-width="8"/>
      <path id="Path_5183" data-name="Path 5183" d="M425.248,366.621a1.3,1.3,0,0,1-1.3-1.3V305.9a1.3,1.3,0,1,1,2.59,0v59.418a1.3,1.3,0,0,1-1.291,1.307Z" transform="translate(-66.145 -38.139)" fill="#e1f3ff" stroke="#e1f3ff" stroke-width="8"/>
      <path id="Path_5184" data-name="Path 5184" d="M400.219,366.644a1.3,1.3,0,0,1-1.3-1.3V305.919a1.3,1.3,0,0,1,2.6,0v59.418a1.3,1.3,0,0,1-1.3,1.307Z" transform="translate(-66.12 -38.163)" fill="#e1f3ff" stroke="#e1f3ff" stroke-width="8"/>
      <path id="Path_5185" data-name="Path 5185" d="M475.3,366.644a1.3,1.3,0,0,1-1.3-1.3V305.919a1.3,1.3,0,1,1,2.6,0v59.418a1.3,1.3,0,0,1-1.3,1.307Z" transform="translate(-65.2 -38.163)" fill="#e1f3ff" stroke="#e1f3ff" stroke-width="8"/>
      <path id="Path_5186" data-name="Path 5186" d="M500.328,366.621a1.3,1.3,0,0,1-1.3-1.3V305.9a1.3,1.3,0,1,1,2.59,0v59.418a1.3,1.3,0,0,1-1.291,1.307Z" transform="translate(-64.225 -38.139)" fill="#e1f3ff" stroke="#e1f3ff" stroke-width="8"/>
      <path id="Path_5187" data-name="Path 5187" d="M525.35,366.621a1.3,1.3,0,0,1-1.291-1.3V305.9a1.3,1.3,0,1,1,2.59,0v59.418a1.3,1.3,0,0,1-1.3,1.307Z" transform="translate(-64.255 -38.139)" fill="#e1f3ff" stroke="#e1f3ff" stroke-width="8"/>
      <path id="Path_5188" data-name="Path 5188" d="M550.379,366.644a1.3,1.3,0,0,1-1.3-1.3V305.919a1.3,1.3,0,0,1,2.6,0v59.418a1.3,1.3,0,0,1-1.3,1.307Z" transform="translate(-64.28 -38.163)" fill="#e1f3ff" stroke="#e1f3ff" stroke-width="8"/>
      <path id="Path_5189" data-name="Path 5189" d="M575.408,366.621a1.3,1.3,0,0,1-1.3-1.3V305.9a1.3,1.3,0,1,1,2.59,0v59.418a1.3,1.3,0,0,1-1.291,1.307Z" transform="translate(-63.305 -38.139)" fill="#e1f3ff" stroke="#e1f3ff" stroke-width="8"/>
      <path id="Path_5192" data-name="Path 5192" d="M650.488,366.621a1.3,1.3,0,0,1-1.3-1.3V305.9a1.3,1.3,0,1,1,2.59,0v59.418a1.3,1.3,0,0,1-1.291,1.307Z" transform="translate(-113.385 -38.139)" fill="#e1f3ff" stroke="#e1f3ff" stroke-width="8"/>
      <path id="Path_5194" data-name="Path 5194" d="M424.776,224.929H400.2a1.3,1.3,0,1,1,0-2.59h24.581a1.3,1.3,0,1,1,0,2.59Z" transform="translate(-66.063 -22.698)" fill="#83b9fd"/>
      <path id="Path_5196" data-name="Path 5196" d="M424.776,238.859H400.2a1.3,1.3,0,1,1,0-2.59h24.581a1.3,1.3,0,1,1,0,2.59Z" transform="translate(-66.063 -25.316)" fill="#83b9fd"/>
      <path id="Path_5197" data-name="Path 5197" d="M447.334,266.96h-47.1a1.3,1.3,0,1,1,0-2.59h47.1a1.3,1.3,0,1,1,0,2.59Z" transform="translate(-66.07 -30.597)" fill="#83b9fd"/>
      <path id="Path_5198" data-name="Path 5198" d="M431.962,280.9H400.219a1.3,1.3,0,0,1,0-2.6h31.743a1.3,1.3,0,1,1,0,2.6Z" transform="translate(-66.087 -33.216)" fill="#83b9fd"/>
      <path id="Path_10821" data-name="Path 10821" d="M447.334,266.96h-47.1a1.3,1.3,0,1,1,0-2.59h47.1a1.3,1.3,0,1,1,0,2.59Z" transform="translate(19.93 -54.598)" fill="#83b9fd"/>
      <path id="Path_10822" data-name="Path 10822" d="M431.962,280.9H400.219a1.3,1.3,0,0,1,0-2.6h31.743a1.3,1.3,0,1,1,0,2.6Z" transform="translate(19.913 -80.217)" fill="#83b9fd"/>
      <path id="Path_10823" data-name="Path 10823" d="M447.334,266.96h-47.1a1.3,1.3,0,1,1,0-2.59h47.1a1.3,1.3,0,1,1,0,2.59Z" transform="translate(19.93 -20.598)" fill="#83b9fd"/>
      <path id="Path_10824" data-name="Path 10824" d="M431.962,280.9H400.219a1.3,1.3,0,0,1,0-2.6h31.743a1.3,1.3,0,1,1,0,2.6Z" transform="translate(19.913 -46.217)" fill="#83b9fd"/>
    </g>
    <g id="Group_7323" data-name="Group 7323" transform="translate(215.275 111.141)">
      <g id="Group_7308" data-name="Group 7308" transform="translate(0 0)">
        <g id="Group_7307" data-name="Group 7307" transform="translate(0 0)">
          <path id="Path_10769" data-name="Path 10769" d="M3987.615,717.6a2.014,2.014,0,0,0-2.016,2.016v25.995a2.015,2.015,0,0,0,2.016,2.016h26.525a17.441,17.441,0,0,1-.212-2.44v-.106h-1.379V725.133h4.032v11.035c.637-.849,1.272-1.7,2.015-2.546V720.146h2.016v11.777a13,13,0,0,1,2.016-1.273v-5.517h4.032v3.926a6.175,6.175,0,0,1,2.016-.318v-8.594h2.016v8.488h0a15.778,15.778,0,0,1,4.987.743v-9.655a2.015,2.015,0,0,0-2.016-2.016h-46.046Zm2.971,2.546h2.016v25.04h-2.016Zm4.032,0h2.015v25.04h-2.015Zm9.973,0h2.016v25.04h-2.016Zm4.032,0h2.016v25.04h-2.016Zm-9.974,4.987h4.032V745.08h-4.032Z" transform="translate(-3985.6 -717.6)" fill="#83b9fd"/>
          <path id="Path_10770" data-name="Path 10770" d="M4028.86,729.6c-.531,0-1.061.106-1.592.106a1.266,1.266,0,0,0-1.167,1.273v1.379a.672.672,0,0,1-.53.637,25.792,25.792,0,0,0-2.546,1.061c-.212.212-.53.106-.849-.106l-.954-.955a1.43,1.43,0,0,0-1.7-.106,24.314,24.314,0,0,0-2.334,2.334,1.185,1.185,0,0,0,.106,1.7l.955.955a.642.642,0,0,1,.106.849,10.79,10.79,0,0,0-1.061,2.546.673.673,0,0,1-.636.531h-1.379c-.744.106-1.273.531-1.273,1.167a8,8,0,0,0-.106,1.591c0,.531.106,1.061.106,1.592a1.265,1.265,0,0,0,1.273,1.167h1.379a.673.673,0,0,1,.636.531,25.963,25.963,0,0,0,1.061,2.546c.212.212.106.531-.106.849l-.955.955a1.431,1.431,0,0,0-.106,1.7,24.314,24.314,0,0,0,2.334,2.334,1.185,1.185,0,0,0,1.7-.106l.954-.955a.643.643,0,0,1,.849-.106,10.735,10.735,0,0,0,2.546,1.061.672.672,0,0,1,.53.637v1.379c.106.743.53,1.273,1.167,1.273a8.049,8.049,0,0,0,1.592.106c.53,0,1.06-.106,1.591-.106a1.267,1.267,0,0,0,1.167-1.273v-1.379a.672.672,0,0,1,.53-.637,25.818,25.818,0,0,0,2.547-1.061c.212-.212.53-.106.848.106l.956.955a1.428,1.428,0,0,0,1.7.106,24.319,24.319,0,0,0,2.335-2.334,1.184,1.184,0,0,0-.107-1.7l-.954-.955a.641.641,0,0,1-.106-.849,10.775,10.775,0,0,0,1.061-2.546.674.674,0,0,1,.637-.531h1.379c.743-.106,1.273-.53,1.273-1.167a8.005,8.005,0,0,0,.106-1.592c0-.53-.106-1.061-.106-1.591a1.265,1.265,0,0,0-1.273-1.167h-1.379a.674.674,0,0,1-.637-.531,26.065,26.065,0,0,0-1.061-2.546c-.212-.212-.106-.531.106-.849l.954-.955a1.429,1.429,0,0,0,.107-1.7,24.319,24.319,0,0,0-2.335-2.334,1.184,1.184,0,0,0-1.7.106l-.956.955a.64.64,0,0,1-.848.106,10.786,10.786,0,0,0-2.547-1.061.672.672,0,0,1-.53-.637v-1.379c-.106-.743-.531-1.273-1.167-1.273a7.022,7.022,0,0,0-1.591-.106Zm0,7.109a7.852,7.852,0,1,1-7.852,7.852A7.833,7.833,0,0,1,4028.86,736.709Z" transform="translate(-3983.874 -716.868)" fill="#5968f6"/>
        </g>
      </g>
      <g id="Group_7320" data-name="Group 7320" transform="translate(41.892 21.088)">
        <path id="Path_5274" data-name="Path 5274" d="M5.205,2.892a.868.868,0,0,1-.924.35A1.757,1.757,0,0,0,3.2,3.179c-.7.191-1.051.542-1.051,1.179,0,1.37,3.791.255,3.791,3.026a3.563,3.563,0,0,1-1.784,3.09.9.9,0,0,0-.446.765v.287a.949.949,0,0,1-.7.86h0a.524.524,0,0,1-.7-.51v-.159a.518.518,0,0,0-.542-.542,4.354,4.354,0,0,1-1.434-.223A.587.587,0,0,1,.14,10.06c.064-.1.127-.223.191-.319A.834.834,0,0,1,1.287,9.3a2.85,2.85,0,0,0,1.465.032C3.549,9.1,3.9,8.69,3.9,8.053,3.9,6.588.108,7.575.108,4.995a3.424,3.424,0,0,1,1.72-2.963.9.9,0,0,0,.446-.765V1.013a.949.949,0,0,1,.7-.86h0a.524.524,0,0,1,.7.51V.854a.511.511,0,0,0,.51.542,2.857,2.857,0,0,1,1.083.287c.319.159.35.605.1.988A1.349,1.349,0,0,0,5.205,2.892Z" transform="translate(-0.019 -0.131)" fill="#5968f6"/>
      </g>
    </g>
  </g>
  <g id="Group_7312" data-name="Group 7312" transform="translate(51.333 136.774)">
    <g id="Group_491_1_">
      <rect id="Rectangle_106_1_" width="8.141" height="322.911" fill="#feac00"/>
      <rect id="Rectangle_107_1_" width="8.141" height="322.911" transform="translate(70.787)" fill="#feac00"/>
    </g>
    <rect id="Rectangle_108_1_" width="67.873" height="6.513" transform="translate(5.57 293.002)" fill="#feac00"/>
    <rect id="Rectangle_109_1_" width="67.873" height="6.513" transform="translate(5.57 258.723)" fill="#feac00"/>
    <rect id="Rectangle_110_1_" width="67.873" height="6.513" transform="translate(5.57 225.729)" fill="#feac00"/>
    <rect id="Rectangle_111_1_" width="67.873" height="6.513" transform="translate(5.57 192.135)" fill="#feac00"/>
    <rect id="Rectangle_112_4_" width="67.873" height="6.513" transform="translate(5.57 158.199)" fill="#feac00"/>
    <rect id="Rectangle_114_4_" width="67.873" height="6.513" transform="translate(5.57 91.011)" fill="#feac00"/>
    <rect id="Rectangle_116_1_" width="67.873" height="6.513" transform="translate(5.57 23.481)" fill="#feac00"/>
    <rect id="Rectangle_112_1_" width="67.873" height="6.513" transform="translate(5.57 124.948)" fill="#feac00"/>
    <rect id="Rectangle_114_1_" width="67.873" height="6.513" transform="translate(5.57 57.246)" fill="#feac00"/>
  </g>
  <g id="Group_7314" data-name="Group 7314" transform="translate(354.638 130.428)">
    <path id="Path_10773" data-name="Path 10773" d="M420.488,331.787c2.314-.857,4.8-1.457,5.656-1.885a9.867,9.867,0,0,0,1.457-1.2c.771-.6,1.885-1.714,2.828-1.8l4.113-.6c1.971-.257,3.342-1.371,3.171-3.428h0c-.257-2.142-2.228-2.914-4.371-2.4l-2.914.343c-1.714.428-3.428,0-5.142-.257-3.514-.6-7.37.771-10.369,2.142-1.885.857-.943,5.485-.086,9.17.514,2.485,1.714,5.313,2.742,4.628,1.628-1.028-1.8-9.77,3.771-9,.257,0,.943.171,1.028.514.171,1.028-2.057,1.457-3,2.057-1.457.857-1.885,1.971-1.628,2.657C417.917,333.329,418.859,332.386,420.488,331.787Z" transform="translate(-413.822 -176.24)" fill="#fab9af"/>
    <path id="Path_10774" data-name="Path 10774" d="M515.428,223.519s-13.455,47.991-31.194,61.617C472.065,294.477,441.9,309.9,441.9,309.9a14.481,14.481,0,0,1-2.057-2.228,15.351,15.351,0,0,1-1.543-2.657s33.765-25.966,38.221-32.651,17.911-48.419,24-53.733C506.43,213.492,517.485,215.634,515.428,223.519Z" transform="translate(-417.323 -161.298)" fill="#5968f6"/>
    <path id="Path_10775" data-name="Path 10775" d="M502.7,311.809l13.8-96.667L553.6,210l19.282,101.038Z" transform="translate(-426.533 -160.462)" fill="#fab9af"/>
    <path id="Path_10776" data-name="Path 10776" d="M531.723,502.955v10.884a24.471,24.471,0,0,0,.857,6.6l.943,3.342a4.311,4.311,0,0,1-4.114,5.485h-23.4a1.11,1.11,0,0,1-1.114-.857c-.257-3.171,8.913-5.313,15.854-7.97,5.313-2.057,4.97-11.484,4.371-17.054a3.316,3.316,0,0,1,3.6-3.685h0A3.207,3.207,0,0,1,531.723,502.955Z" transform="translate(-426.847 -201.893)" fill="#fab9af"/>
    <path id="Path_10777" data-name="Path 10777" d="M592.554,499.556l3.771,12.426a5.209,5.209,0,0,0,.771,1.543l2.657,3.942a4.52,4.52,0,0,1-2.4,6.856s-5.4,1.885-10.884,3.685c-5.656,1.885-12.769.343-12.769-1.2,0-3.342,3.085-.686,8.313-4.113,1.714-1.2,3.514-2.4,5.142-3.6,4.456-3.514.6-12.341-2.142-17.4a3.1,3.1,0,0,1,2.057-4.456l1.285-.257A3.551,3.551,0,0,1,592.554,499.556Z" transform="translate(-436.688 -201.493)" fill="#fab9af"/>
    <path id="Path_10778" data-name="Path 10778" d="M544,329.328,502.866,325.9s-4.113,29.909,6.256,84.156c4.885,25.452,15,73.957,15,73.957a11.95,11.95,0,0,0,7.713.771s.771-21.424,1.285-44.477c.429-22.11.6-45.763,1.971-53.476C537.916,370.892,544,329.328,544,329.328Z" transform="translate(-426.442 -177.038)" fill="#1e2d64"/>
    <path id="Path_10779" data-name="Path 10779" d="M519.589,327.2c-.686,6.942,4.371,32.908,5.4,43.192,1.114,11.912,10.884,53.047,11.055,45.249.257-12.94.686-24,1.542-28.795,2.914-15.768,8.913-57.418,8.913-57.418Z" transform="translate(-428.94 -177.224)" fill="#0f1446"/>
    <path id="Path_10780" data-name="Path 10780" d="M540.053,328.831c-4.285,22.8-13.712,56.9,4.542,88.869s37.45,65.3,37.45,65.3a10.106,10.106,0,0,0,6.77-2.4s-3.171-14.483-7.8-31.451c-5.313-19.368-12-42.163-10.112-54.076,3.6-22.281,7.713-51.933,6.427-66.33C576.132,314.263,542.281,316.834,540.053,328.831Z" transform="translate(-430.978 -176.028)" fill="#1e2d64"/>
    <path id="Path_10781" data-name="Path 10781" d="M501.092,309.338l15.169-94.182,37.107-5.056,19.968,99.5a3.429,3.429,0,0,1-2.742,4.028,240.813,240.813,0,0,1-42.249,4.028c-13.883,0-21.767-2.742-25.281-4.456A3.622,3.622,0,0,1,501.092,309.338Z" transform="translate(-426.296 -160.477)" fill="#fff"/>
    <path id="Path_10782" data-name="Path 10782" d="M548.6,216.013a58.186,58.186,0,0,0,3.514,19.882c4.542,12.512,11.312,36.079,7.284,56.9-5.828,29.909-13.283,42.078-3.6,49.019s28.28-4.628,28.88-8.57c.514-3.856-3.6-51.59-8.313-72.244s-17.911-50.3-17.911-50.3l-5.57.6a4.62,4.62,0,0,0-4.285,4.713Z" transform="translate(-433.098 -160.563)" fill="#00aeef"/>
    <path id="Path_10783" data-name="Path 10783" d="M573.952,302.64a56.115,56.115,0,0,0-6.085-17.054,93.767,93.767,0,0,1-9.341-26.481,153.527,153.527,0,0,0-6.6-23.653,57.142,57.142,0,0,1-3.428-19.711v-4.2L558.869,210c11.912,1.543,13.54,6.513,11.912,18.339-1.885,13.8,3.6,25.624,5.485,32.48,10.969,40.964,10.112,59.046,8.313,72.244-.343,2.657-8.913,8.741-17.482,10.369C568.3,341.975,577.723,323.379,573.952,302.64Z" transform="translate(-433.084 -160.462)" fill="#00aeef"/>
    <path id="Path_10784" data-name="Path 10784" d="M524.851,214.3s-6.427,13.883-4.2,33.936c2.228,19.968,7.456,80.813-10.712,90.069C504.2,341.219,491,328.364,491,323.565s4.371-20.825,8.57-35.308c3.342-11.741,7.884-51.333,9.512-66.073.343-3.342.857-6,4.2-6.427Z" transform="translate(-424.86 -161.077)" fill="#5968f6"/>
    <g id="Group_7313" data-name="Group 7313" transform="translate(87.119 3.089)">
      <path id="Path_10785" data-name="Path 10785" d="M549.314,169.073a3.6,3.6,0,0,1,5.742,2.314,12.63,12.63,0,0,0,2.485,5.656c3.342,4.114-1.543,7.884-2.657,10.712-1.114,2.742.257,6.942-2.914,8.827s-12.341,2.4-13.8-.943C537.06,192.9,541.944,174.9,549.314,169.073Z" transform="translate(-518.703 -157.59)" fill="#41378c"/>
      <path id="Path_10786" data-name="Path 10786" d="M515.926,172.511c-.514,18.254,15.6,22.282,25.538,22.282s10.027-12.6,10.027-20.482-7.456-18.511-17.4-18.511c-7.8,0-15.169,6.085-18.254,11.826C514.983,169.169,515.926,170.883,515.926,172.511Z" transform="translate(-515.48 -155.8)" fill="#41378c"/>
      <path id="Path_10787" data-name="Path 10787" d="M533.92,164c8.313,0,11.4,5.913,11.569,16.8.086,4.114-1.8,8.141-3.257,10.712a8.178,8.178,0,0,0-.771,6.342l1.8,6.17c1.2,5.742-1.457,8.827-5.485,9.941a7.65,7.65,0,0,1-6.085-1.028c-2.057-1.371-2.228-4.2-1.885-6.6l.429-1.714a4.354,4.354,0,0,0-3.171-5.4c-6.342-1.371-7.284-8.056-9-18.339C516.352,170.085,525.607,164,533.92,164Z" transform="translate(-515.82 -156.973)" fill="#fab9af"/>
      <path id="Path_10788" data-name="Path 10788" d="M518.386,164.97a4.937,4.937,0,0,1,4.542-4.885,17.731,17.731,0,0,0,1.885-.343L534.326,157c5.742,0,15.254,3.257,14.055,11.569l-1.028,5.656a5.643,5.643,0,0,1-4.8,4.542h0a1.929,1.929,0,0,1-1.8,1.371,1.9,1.9,0,0,1-1.885-1.885,5.674,5.674,0,0,0-4.456-5.485c-3.171-.686-6.427-2.314-10.027-1.371H524.3a4.9,4.9,0,0,1-6-4.8A9.842,9.842,0,0,0,518.386,164.97Z" transform="translate(-515.883 -155.972)" fill="#41378c"/>
      <path id="Path_10789" data-name="Path 10789" d="M544.7,183.128c0,2.571.943,4.542,3.342,4.542s4.028-3.514,4.028-6c0-2.571-1.543-3.171-4.028-3.171C545.643,178.5,544.7,180.557,544.7,183.128Z" transform="translate(-519.659 -159.047)" fill="#fab9af"/>
      <path id="Path_10790" data-name="Path 10790" d="M521.093,191.256a1.927,1.927,0,0,0,1.885,2.314h0a1.885,1.885,0,0,0,1.885-1.8v-8.056a.835.835,0,0,0-.343-.771,1.54,1.54,0,0,0-.771-.343.835.835,0,0,0-.857.686Z" transform="translate(-516.277 -159.633)" fill="#fa968c"/>
    </g>
    <path id="Path_10791" data-name="Path 10791" d="M514.7,172.268a19.045,19.045,0,0,1,38.05,0Z" transform="translate(-428.25 -152.468)" fill="#1e2d64"/>
    <path id="Path_10793" data-name="Path 10793" d="M508.7,170.4h28.109a4.206,4.206,0,0,1,4.2,4.2H504.5A4.206,4.206,0,0,1,508.7,170.4Z" transform="translate(-426.791 -154.799)" fill="#0f1446"/>
    <path id="Path_10794" data-name="Path 10794" d="M532.8,154.17c0,.686,1.371.6,3,.6s3,.086,3-.6-1.371-1.971-3-1.971C534.171,152.114,532.8,153.4,532.8,154.17Z" transform="translate(-430.838 -152.195)" fill="#0f1446"/>
    <path id="Path_10795" data-name="Path 10795" d="M520.356,175.3a10.1,10.1,0,0,0-2.571,5.742H517.7a1.172,1.172,0,0,1-1.2-1.2v-3.428a1.134,1.134,0,0,1,1.114-1.114Z" transform="translate(-428.507 -155.5)" fill="#41378c"/>
  </g>
  <path id="Path_10796" data-name="Path 10796" d="M550.268,542.941H3.342C1.457,542.941,0,540.97,0,538.571H0c0-2.4,1.543-4.371,3.342-4.371h546.84c1.885,0,3.342,1.971,3.342,4.371h0C553.61,541.056,552.067,542.941,550.268,542.941Z" transform="translate(0 -76.401)" fill="#d2f0ff"/>
  <g id="Group_7316" data-name="Group 7316" transform="translate(190.273 272.177)">
    <g id="Group_7315" data-name="Group 7315">
      <path id="Path_10797" data-name="Path 10797" d="M351.21,397.656c-7.541-2.914-15.169-5.827-22.71-8.656l6,15.854Z" transform="translate(-237.255 -327.812)" fill="#e1f3ff"/>
      <path id="Path_10798" data-name="Path 10798" d="M292.3,420.322l21.939-9.427-9-24.6Z" transform="translate(-232.077 -327.425)" fill="#e1f3ff"/>
      <path id="Path_10799" data-name="Path 10799" d="M320.582,430.5,302.5,437.956l24.081,9.17Z" transform="translate(-233.536 -333.747)" fill="#e1f3ff"/>
      <path id="Path_10800" data-name="Path 10800" d="M347.927,439.281,356.84,415.8l-15.34,6.342Z" transform="translate(-239.114 -331.644)" fill="#e1f3ff"/>
      <path id="Path_10801" data-name="Path 10801" d="M395.336,395.828c-2.571,2.571-5.228,1.457-8.141.343l-25.8,64.873a5.815,5.815,0,0,1,1.543,7.113c-.086.171-.086.428-.171.6a18.521,18.521,0,0,1,3.685,1.2l13.455-33.079a.621.621,0,0,1,1.2.171l1.628,9.512v.343l-9.855,27.166.171.257a23.237,23.237,0,0,1,5.4,7.713L392.337,447.5l-6.6-27.595v-.428L395.765,395.4Z" transform="translate(-241.96 -328.727)" fill="#1e2d64"/>
      <path id="Path_10802" data-name="Path 10802" d="M432.236,323.7l-13.2,2.742H418.7s-2.742-.171-6.513,10.712L397.1,374.091c3.257,1.2,6.17,2.828,5.57,6.856L421.7,335.012c.086-.171.171-.343.428-.343l10.541-3.514a5.332,5.332,0,0,0,1.2-1.628.855.855,0,0,1-.343-.429,44.986,44.986,0,0,1-.771-4.713A1.165,1.165,0,0,0,432.236,323.7Z" transform="translate(-247.066 -318.472)" fill="#1e2d64"/>
      <path id="Path_10803" data-name="Path 10803" d="M254.914,433.653a4.178,4.178,0,0,0-1.714-.257c2.742.171,5.742,1.8,8.227,2.742,2.914,1.114,5.742,2.142,8.656,3.257v-.086Z" transform="translate(-226.485 -334.158)"/>
      <path id="Path_10804" data-name="Path 10804" d="M359.813,472.971a5.307,5.307,0,0,0-1.457-.943L353.9,470.4v.086c1.885.686,4.285,1.2,5.913,2.485Z" transform="translate(-240.887 -339.453)"/>
      <path id="Path_10805" data-name="Path 10805" d="M399.513,385.171a3.594,3.594,0,0,0-1.2-.771L391.8,382v.086c2.4.857,5.57,1.457,7.713,3.085C399.17,384.828,399.427,385.171,399.513,385.171Z" transform="translate(-246.308 -326.81)"/>
      <path id="Path_10806" data-name="Path 10806" d="M320.526,355.493l-14.055-5.228a2.542,2.542,0,0,0-1.371-.171c2.314.171,4.885,1.628,7.113,2.4,2.657,1.028,5.485,2.057,8.313,3Z" transform="translate(-233.908 -322.242)"/>
      <path id="Path_10807" data-name="Path 10807" d="M365.34,390.452,298.5,365.6l-24,64.616q33.422,12.469,66.845,24.852Zm-76.7,28.709c-.514-.086-.686-.343-.6-.857l14.054-37.022a.659.659,0,0,1,1.2,0c3,9,6.513,17.911,9.77,26.824.086.343,0,.686-.343.771l-23.824,10.2A.315.315,0,0,1,288.64,419.161ZM324.2,439.3a.56.56,0,0,1-.686.171l-26.909-10.2a.659.659,0,0,1,0-1.2l20.139-8.227a.7.7,0,0,1,.857.343l6.684,18.254.086.086a1.152,1.152,0,0,1-.171.771Zm2.228-36.336c-.257,0-.428-.171-.6-.428l-6.684-17.825c-.086-.6.171-.857.857-.857l25.538,9.684a.659.659,0,0,1,0,1.2c-6.256,2.657-12.512,5.4-18.854,8.056C326.6,402.964,326.519,402.964,326.433,402.964ZM338.345,434.5h0a.644.644,0,0,1-.6-.428l-7.284-19.282c-.086-.343,0-.686.343-.771l17.311-7.113c.6-.086.943.171.857.771l-10.027,26.4A.644.644,0,0,1,338.345,434.5Z" transform="translate(-229.532 -324.465)" fill="#00aeef"/>
      <path id="Path_10808" data-name="Path 10808" d="M345.2,474.134a4.554,4.554,0,0,0-2.571-5.913l-89.04-33.165a4.511,4.511,0,0,0-6,4.713,17.82,17.82,0,0,1,9.255,6.085l77.728,28.88a22.327,22.327,0,0,1,10.627-.6C345.29,474.049,345.033,474.049,345.2,474.134Z" transform="translate(-225.678 -334.361)" fill="#0f1446"/>
      <path id="Path_10809" data-name="Path 10809" d="M302,360.157l79.442,29.566c4.885,1.8,7.97-6.6,3.171-8.4l-79.442-29.566C300.374,349.958,297.2,358.357,302,360.157Z" transform="translate(-233.124 -322.449)" fill="#0f1446"/>
      <path id="Path_10810" data-name="Path 10810" d="M349.085,519.156a14.259,14.259,0,0,0,17.14-6.427c4.285-7.456,1.114-17.568-7.113-20.568-7.97-2.914-16.625,2.142-18.682,10.2a14.3,14.3,0,0,0,8.655,16.8C356.283,521.813,341.8,516.414,349.085,519.156ZM342.4,501.331c2.485-6.684,10.284-10.284,16.883-7.284s9.084,11.226,5.742,17.568a12.612,12.612,0,0,1-16.883,5.4,12.893,12.893,0,0,1-5.742-15.683C343.6,498.074,340,507.93,342.4,501.331Z" transform="translate(-238.9 -342.446)" fill="#5968f6"/>
      <path id="Path_10811" data-name="Path 10811" d="M373.479,496.29a21.7,21.7,0,0,0-29.909-12.255,23.178,23.178,0,0,0-11.912,26.823,21.7,21.7,0,0,0,26.224,15.169c12.683-3.342,19.968-17.4,15.6-29.737C372.279,492.947,375.278,501.26,373.479,496.29Zm-2.228,14.826c-3.342,9.084-13.112,14.911-22.71,12.94-11.141-2.314-17.825-13.969-14.911-24.767s14.312-17.74,25.2-14.4c10.884,3.428,16.368,15.768,12.426,26.224C368.251,519.343,373.136,506.059,371.25,511.115Z" transform="translate(-237.584 -341.09)" fill="#5968f6"/>
      <path id="Path_10812" data-name="Path 10812" d="M370.615,511.265c3.685-9.941-1.457-21.51-11.741-24.6-10.541-3.257-21.6,4.028-23.738,14.654-2.057,10.027,4.371,20.31,14.569,22.2,8.913,1.628,17.825-3.856,20.91-12.255C372.415,506.551,367.016,521.12,370.615,511.265Zm-17.568,9.255a15.3,15.3,0,0,1-15-13.883,15.973,15.973,0,0,1,13.8-17.311,15.193,15.193,0,0,1,16.711,14.826A15.862,15.862,0,0,1,353.047,520.52Z" transform="translate(-238.149 -341.668)" fill="#7a86ff"/>
      <path id="Path_10813" data-name="Path 10813" d="M250.2,456.078a10.617,10.617,0,0,0-13.455-6.77,11.412,11.412,0,0,0-6.942,14.226,10.552,10.552,0,0,0,13.112,6.684,11.186,11.186,0,0,0,7.284-14.14C250.118,455.735,250.975,458.477,250.2,456.078Zm-1.028,7.027c-4.371,11.655-22.024,5.913-18.6-6.085a9.805,9.805,0,1,1,18.6,6.085C247.633,467.218,250.118,460.62,249.175,463.1Z" transform="translate(-223.061 -336.357)" fill="#5968f6"/>
      <path id="Path_10814" data-name="Path 10814" d="M252.255,447.753a16.866,16.866,0,0,0-24-2.314,17.737,17.737,0,0,0-3.685,22.624,16.761,16.761,0,0,0,24.167,4.542,17.691,17.691,0,0,0,3.514-24.852Zm1.2,16.283a16,16,0,0,1-16.883,10.284c-9-1.285-14.74-10.369-12.683-19.025,1.971-8.57,10.969-14.4,19.625-11.826s13.026,12.255,9.941,20.568C251.056,470.463,254.912,460.094,253.455,464.036Z" transform="translate(-222.027 -335.317)" fill="#5968f6"/>
      <path id="Path_10815" data-name="Path 10815" d="M252.709,464.049c2.828-7.627-1.2-16.625-9.17-18.939s-16.283,3.085-18,11.055c-1.714,7.713,3.171,15.768,11.055,17.225a14.649,14.649,0,0,0,16.111-9.341C254.08,460.45,249.881,471.591,252.709,464.049Zm-13.455,7.37a12.1,12.1,0,0,1-11.826-12.683,12.408,12.408,0,0,1,12.6-11.826,12.015,12.015,0,0,1,11.4,12.683A12.507,12.507,0,0,1,239.255,471.419Z" transform="translate(-222.481 -335.759)" fill="#7a86ff"/>
      <path id="Path_10816" data-name="Path 10816" d="M463.1,320.428a5.211,5.211,0,0,0-2.057-2.828l-20.739,6,.6,3.514,21.253-2.742a4.721,4.721,0,0,0,.943-3.942C462.753,318.971,463.439,321.628,463.1,320.428Z" transform="translate(-253.244 -317.6)" fill="#0f1446"/>
    </g>
  </g>
  <path id="Path_10817" data-name="Path 10817" d="M453.766,312.778a1.778,1.778,0,0,1-.857.514l-4.8,1.114a6.517,6.517,0,0,0-4.371,2.914c-1.628,2.571-4.456,3.428-2.914,3.942s5.313-.257,6.17-2.485c.257-.771,1.714-.428,2.485-.428l1.371-.086a13.36,13.36,0,0,1,7.2,2.142l1.371,1.2,3.171-6.77c.343-.857,6-2.228,5.228-2.742l-3.514-3.6c-.771-.428-6.256,2.571-6.856,3.171Z" transform="translate(-62.983 -44.114)" fill="#fab9af"/>
  <path id="Path_10818" data-name="Path 10818" d="M449.527,318.047a4.334,4.334,0,0,1,2.742-.171,20.517,20.517,0,0,1,2.4,1.114c.428.428,1.8-.257,2.4-.343.514-.086.6.428,1.2.6.857.257.171-.514.857.257.514.6.086.771.857,1.114.429.171.686,1.114-.771,5.742-.343,1.114.086,2.314-1.028,2.828a2.088,2.088,0,0,1-2.228-.257,1.35,1.35,0,0,0-1.114-.343h-.171a2.335,2.335,0,0,1-1.457-.686,1.486,1.486,0,0,0-1.543-.428,2.888,2.888,0,0,1-1.885-.086,2.213,2.213,0,0,1-.943-.6,1.653,1.653,0,0,0-1.543-.514,1.731,1.731,0,0,1-1.628-.428C444.642,324.646,448.327,318.561,449.527,318.047Z" transform="translate(-63.714 -45.441)" fill="#fab9af"/>
  <path id="Path_10819" data-name="Path 10819" d="M558.768,220.167S537,269.786,515.833,281.784c-14.483,8.227-49.362,20.053-49.362,20.053a20.237,20.237,0,0,1-1.885-2.742,17.736,17.736,0,0,1-1.285-3.085s40.278-22.71,46.106-29.223,27.166-48.677,33.936-54.161C550.455,206.969,560.739,209.883,558.768,220.167Z" transform="translate(-66.261 -30.003)" fill="#00aeef"/>
  <g id="Group_123_1_" transform="translate(63.434 126.421)">
    <path id="Path_97_1_" d="M-172.373,316.568l-3.257,12.769-.686,1.285-2.4,3.514a3.912,3.912,0,0,0,.857,5.313,5.908,5.908,0,0,0,1.285.6s4.8,1.714,9.512,3.257c4.97,1.543,11.055.257,11.055-1.114,0-2.828-2.571-.686-7.2-3.685l-4.542-3.257c-3.942-3-.428-10.884,1.971-15.169.857-1.543,0-5.4-1.714-5.827L-168.6,314A3.815,3.815,0,0,0-172.373,316.568Z" transform="translate(251.328 -12.511)" fill="#fab9af"/>
    <path id="Path_98_1_" d="M-52.451,125.553c-2.571.086-5.056.171-6.256.257a8.744,8.744,0,0,0-1.885.771,11.089,11.089,0,0,1-3.257,1.028l-4.114-.6c-1.885-.428-3.771.343-3.942,2.4h0c-.257,2.228,1.371,3.428,3.6,3.685l3,.514a10.282,10.282,0,0,1,4.885,1.8c3.342,1.543,7.456,1.457,10.884.943,2.142-.257,3.771-2.657,5.742-5.913.943-1.543,2.057-4.371-.257-3.514-1.8.6-5.142,5.4-10.284,2.828-.171-.086-.943-.514-.857-.771.086-1.114,2.314-.857,3.514-1.114,1.714-.343,2.485-1.457,2.485-2.142C-49.537,124.867-50.566,125.467-52.451,125.553Z" transform="translate(235.958 14.478)" fill="#fab9af"/>
    <path id="Path_99_1_" d="M-181.4,33.927c5.827,18.254,20.568,52.533,42.506,64.616,14.74,8.227,50.562,20.4,50.562,20.4s1.114-1.543,1.971-2.828a11.728,11.728,0,0,0,1.285-3.257s-44.477-22.8-50.562-29.48c-5.827-6.513-25.8-48.762-31.88-55.275C-174.2,20.472-184.659,23.729-181.4,33.927Z" transform="translate(251.702 28.975)" fill="#5968f6"/>
    <g id="Group_7318" data-name="Group 7318" transform="translate(115.357 80.794)">
      <rect id="Rectangle_4808" data-name="Rectangle 4808" width="38" height="41" transform="translate(17.209 18.926)" fill="#fff"/>
      <g id="Group_7317" data-name="Group 7317">
        <rect id="Rectangle_4807" data-name="Rectangle 4807" width="77.643" height="14.569" transform="translate(0 0.21) rotate(-0.155)" fill="#1e2d64"/>
      </g>
      <path id="Path_10820" data-name="Path 10820" d="M-127.4,75.471l.086,46.448,74.986-.171L-52.5,75.3Zm20.825,25.2c1.8-3.171,3.6-6.256,5.4-9.427,1.8,3.085,3.6,6.256,5.485,9.427h-3.771l.086,12h-3.257l-.086-12Zm27.509,17.568-27.852.086V115.15l27.852-.086Zm-4.285-17.654.086,12h-3.257l-.086-12h-3.771c1.8-3.171,3.6-6.256,5.4-9.427,1.8,3.171,3.6,6.256,5.485,9.341Zm7.113-13.112-28.28.086c-1.885,0,2.228-8.741,6.085-8.57l16.625-.086C-78.209,79.242-76.581,85.669-76.238,87.469Z" transform="translate(128.534 -59.169)" fill="#0f1446"/>
    </g>
    <path id="Path_100_1_" d="M-170.785,121.723l-13.883-98.9L-222.632,17.6-242.6,120.866Z" transform="translate(260.367 29.877)" fill="#fab9af"/>
    <path id="Path_101_1_" d="M-255.078,313.514l-3.942,12.769a12.144,12.144,0,0,1-.686,1.543l-2.828,4.113a4.482,4.482,0,0,0,1.285,6.342,7.083,7.083,0,0,0,1.114.6s5.4,1.971,11.055,3.685c5.827,1.971,13.026.257,13.026-1.285,0-3.514-3.257-.686-8.484-4.371a44.2,44.2,0,0,1-5.228-3.685c-4.542-3.685-.686-12.6,2.142-17.825a3.035,3.035,0,0,0-1.2-4.2,4.832,4.832,0,0,0-1.028-.343l-1.285-.257A4.273,4.273,0,0,0-255.078,313.514Z" transform="translate(263.332 -12.028)" fill="#fab9af"/>
    <path id="Path_102_1_" d="M-208.1,139.514-166.022,136s15,53.39,18.854,77.214c2.828,17.14-23.224,83.47-23.224,83.47-2.571,1.114-4.97-.257-7.8-.857,0,0,7.8-58.532,5.228-72.843-2.828-15-25.2-45.077-26.652-52.961A173.436,173.436,0,0,0-208.1,139.514Z" transform="translate(255.433 12.943)" fill="#1e2d64"/>
    <path id="Path_103_1_" d="M-206.324,139.187c4.371,23.224,14.054,58.1-4.542,90.926s-38.393,66.845-38.393,66.845a11.364,11.364,0,0,1-6.942-2.4s3.257-14.74,8.056-32.137c5.4-19.711,12.341-43.192,10.369-55.275-3.685-22.8-7.8-53.133-6.513-67.873C-243.174,124.19-208.466,126.847-206.324,139.187Z" transform="translate(262.312 13.955)" fill="#1e2d64"/>
    <path id="Path_104_1_" d="M-171.327,122.994a3.467,3.467,0,0,0,1.971-3.942l-15.6-96.325L-222.918,17.5l-20.4,101.724a3.5,3.5,0,0,0,2.657,4.114h.086a243.345,243.345,0,0,0,43.192,4.114C-182.982,127.536-175.012,124.708-171.327,122.994Z" transform="translate(260.481 29.891)" fill="#d2f0ff"/>
    <path id="Path_105_1_" d="M-215.018,43.067c-4.542,12.6-11.912,37.279-7.8,58.96,5.827,30.594,13.626,42.935,3.685,50.133s-28.88-4.8-29.48-8.656c-.686-3.942,3.685-52.7,8.484-73.786S-221.874,18.3-221.874,18.3l6.942.686C-214.761,18.814-212.79,37.239-215.018,43.067Z" transform="translate(261.237 29.777)" fill="#00aeef"/>
    <path id="Path_106_1_" d="M-183.109,22.7s3,13.626.686,34.279c-2.4,20.4-7.627,82.613,11.055,92.211,5.827,3,19.282-12.341,19.282-15.169,0-4.97-4.542-21.253-8.656-36.25-3.514-11.912-6.942-51.847-8.056-67.273a7.24,7.24,0,0,0-6.513-6.684Z" transform="translate(252.124 29.147)" fill="#5968f6"/>
    <g id="Group_121_1_" transform="translate(37.389)">
      <path id="Path_107_1_" d="M-308.976-26.217a14.607,14.607,0,0,1-2.828,9.941c-3.514,4.114,1.543,8.056,2.828,10.884,1.114,2.828-.257,7.2,3,9.084,3.257,1.971,12.6,2.4,14.055-.857C-290.294-.85-298.349-28.188-308.976-26.217Z" transform="translate(313.025 36.158)" fill="#41378c"/>
      <path id="Path_108_1_" d="M-270.793-20.232c.428,18.682-16.883,22.367-27.081,22.367S-308.5-20.232-308.5-28.459c0-8.056,8.056-9.341,18-9.341,8.056,0,15.6,6.256,18.682,12.169C-270.793-24.174-270.793-21.946-270.793-20.232Z" transform="translate(312.378 37.8)" fill="#41378c"/>
      <path id="Path_109_1_" d="M-288.459-29.5c-8.484,0-11.741,6.085-11.741,17.14a24.006,24.006,0,0,0,3.257,11.055,8.626,8.626,0,0,1,.857,6.513l-1.971,6.256c-1.285,5.827,1.543,9.084,5.656,10.2a7.1,7.1,0,0,0,6.256-1.114c2.142-1.285,2.4-4.371,1.971-6.684l-.428-1.714a4.491,4.491,0,0,1,3.085-5.57h.171c6.513-1.543,7.37-8.227,9.084-18.854C-270.634-23.158-279.975-29.5-288.459-29.5Z" transform="translate(311.191 36.613)" fill="#fab9af"/>
      <path id="Path_110_1_" d="M-269.24-35.515l-4.8,1.543a7.343,7.343,0,0,1-5.4,0l-9.77-2.828c-5.827,0-15.6,3.257-14.312,11.741l1.114,6.085a5.37,5.37,0,0,0,4.8,4.371h0a1.826,1.826,0,0,0,1.714,1.285,1.939,1.939,0,0,0,1.971-1.971h0a6.125,6.125,0,0,1,4.542-5.656,23.525,23.525,0,0,1,10.37,0c6.684,1.714,13.883-2.4,14.569-9.341v-1.285C-264.612-33.972-266.84-36.114-269.24-35.515Z" transform="translate(311.682 37.657)" fill="#41378c"/>
      <path id="Path_111_1_" d="M-296.173-9.958c0,2.571-.857,4.8-3.514,4.8-2.4,0-4.113-3.514-4.113-6.085s1.543-3.257,4.113-3.257C-297.2-14.5-296.173-12.615-296.173-9.958Z" transform="translate(311.706 34.468)" fill="#fab9af"/>
      <path id="Path_112_1_" d="M-271.444-1.587A1.9,1.9,0,0,1-272.9.726a3.711,3.711,0,0,0-.428.086h0A1.958,1.958,0,0,1-275.3-.9V-9.215a1.633,1.633,0,0,1,.428-.857,1.055,1.055,0,0,1,.857-.428.779.779,0,0,1,.857.686Z" transform="translate(307.63 33.896)" fill="#fa968c"/>
    </g>
    <path id="Path_113_1_" d="M-199.337,39.9a1.617,1.617,0,0,0-1.114.857c-1.285,4.114-7.2,23.224-8.484,33.594-1.114,8.484,2.4,23.224,4.371,30.766a12.016,12.016,0,0,0,5.4,7.2l1.285.857a2.471,2.471,0,0,0,3.257-.857l.857-2.142a6.215,6.215,0,0,0,.428-4.8c-2.4-6.085-8.056-21.939-7.37-32.308.257-3.685,3.685-26.224,4.8-31.88a1.09,1.09,0,0,0-.857-1.285h-2.571Z" transform="translate(255.583 26.687)" fill="#afe6ff"/>
    <path id="Path_114_1_" d="M-197.709,36.557a1.617,1.617,0,0,0-1.114.857c-1.285,4.114-6.684,23.4-7.8,33.851-.857,8.484,2.828,23.224,4.971,30.594a11.818,11.818,0,0,0,5.4,6.942l1.285.686a2.471,2.471,0,0,0,3.257-.857l1.114-1.971a5.273,5.273,0,0,0,.257-4.8c-2.4-5.827-8.484-21.682-8.227-32.137,0-3.685,3.257-26.224,3.942-32.137a1.171,1.171,0,0,0-1.114-1.285Z" transform="translate(255.239 27.202)" fill="#3b3b8f"/>
    <path id="Path_115_1_" d="M-193.2,36.356h-3.685A1.115,1.115,0,0,1-198,35.413V31.643a1.115,1.115,0,0,1,.943-1.114h.086l3.257-.428a1.915,1.915,0,0,1,1.543,1.543v3.685A1.1,1.1,0,0,1-193.2,36.356Z" transform="translate(253.988 28.089)" fill="#3b3b8f"/>
    <path id="Path_116_1_" d="M-205.115,17.4l-6.085,1.114s1.285,9.941,6.085,17.311a.986.986,0,0,0,1.457,0h0l4.371-6.085a2.059,2.059,0,0,0,0-2.4Z" transform="translate(255.876 29.905)" fill="#fff"/>
    <path id="Path_117_1_" d="M-189.233,20.4l6.085,1.971s.257,6.085-4.542,13.2a.986.986,0,0,1-1.457,0h0l-3.514-5.656a2.716,2.716,0,0,1-.257-2.142Z" transform="translate(253.277 29.476)" fill="#fff"/>
    <path id="Path_121_1_" d="M-136.9,76.218a3.4,3.4,0,0,1-.428-4.8l1.285-1.714a10.851,10.851,0,0,0,2.571-6.942c0-1.714,1.114-6.684,2.828-6.256,1.543.257,0,6.256,1.543,6.085.686,0,3.257-4.371,5.228-6.942,1.114-1.285,3-2.142,3.257-.857.257.857,1.114.857,1.971,1.543s.428,4.97.428,6.256c0,1.543.428,1.971-1.714,4.371-1.714,1.971-9.084,6.684-9.084,6.684l-3.257,2.142a3.153,3.153,0,0,1-4.456.514.265.265,0,0,0-.171-.086Z" transform="translate(245.425 24.648)" fill="#fab9af"/>
    <path id="Path_122_1_" d="M-150.264,64.253s-46.02,14.312-53.476,13.54c-7.541-.771-8.827-47.991-10.369-53.476-2.485-9.255-17.654-7.713-21.082,5.485-4.371,16.54,19.025,63.331,23.4,65.73,4.371,2.485,63.845-23.138,63.845-23.138C-147.693,70.167-148.378,67.424-150.264,64.253Z" transform="translate(259.384 29.757)" fill="#00aeef"/>
  </g>
</svg>
